<svg width="134" height="24" viewBox="0 0 134 24" fill="none" xmlns="http://www.w3.org/2000/svg">
<path d="M36.9676 5.35938L41.0496 18.1211L45.1316 5.35938H47.6668V21H45.701V14.9092L45.8836 8.80762L41.7908 21H40.2869L36.2156 8.85059L36.3982 14.9092V21H34.4324V5.35938H36.9676ZM52.8445 21H50.9432V9.37695H52.8445V21ZM52.9949 6.29395C52.9949 6.61621 52.9054 6.88477 52.7264 7.09961C52.5473 7.31445 52.2752 7.42188 51.91 7.42188C51.5519 7.42188 51.2833 7.31445 51.1043 7.09961C50.9253 6.88477 50.8357 6.61621 50.8357 6.29395C50.8357 5.97168 50.9253 5.69954 51.1043 5.47754C51.2833 5.25553 51.5519 5.14453 51.91 5.14453C52.268 5.14453 52.5366 5.25911 52.7156 5.48828C52.9018 5.71029 52.9949 5.97884 52.9949 6.29395ZM59.8807 19.5928C60.5109 19.5928 61.0158 19.3994 61.3953 19.0127C61.7749 18.6188 61.9825 18.0602 62.0184 17.3369H63.8123C63.7693 18.4541 63.3719 19.3815 62.6199 20.1191C61.8751 20.8496 60.962 21.2148 59.8807 21.2148C58.4412 21.2148 57.3419 20.7637 56.5828 19.8613C55.8309 18.9518 55.4549 17.6019 55.4549 15.8115V14.5332C55.4549 12.7786 55.8309 11.4466 56.5828 10.5371C57.3348 9.62044 58.4305 9.16211 59.8699 9.16211C61.0587 9.16211 62.0005 9.53809 62.6951 10.29C63.3969 11.042 63.7693 12.0697 63.8123 13.373H62.0184C61.9754 12.5137 61.7677 11.8691 61.3953 11.4395C61.0301 11.0098 60.5216 10.7949 59.8699 10.7949C59.0249 10.7949 58.3982 11.0742 57.99 11.6328C57.5818 12.1842 57.3706 13.0938 57.3562 14.3613V15.8438C57.3562 17.2116 57.5568 18.1784 57.9578 18.7441C58.366 19.3099 59.007 19.5928 59.8807 19.5928ZM67.9051 10.5693C68.6284 9.63118 69.5522 9.16211 70.6766 9.16211C72.7319 9.16211 73.7739 10.5335 73.8025 13.2764V21H71.9119V13.3623C71.9119 12.4528 71.7579 11.8083 71.45 11.4287C71.1492 11.042 70.6945 10.8486 70.0857 10.8486C69.6131 10.8486 69.187 11.0062 68.8074 11.3213C68.435 11.6364 68.1342 12.0482 67.9051 12.5566V21H66.0037V4.5H67.9051V10.5693ZM82.6219 21C82.5073 20.7493 82.4249 20.3268 82.3748 19.7324C81.7016 20.7207 80.8422 21.2148 79.7967 21.2148C78.7439 21.2148 77.9204 20.9212 77.326 20.334C76.7387 19.7396 76.4451 18.9053 76.4451 17.8311C76.4451 16.6494 76.8462 15.7113 77.6482 15.0166C78.4503 14.3219 79.5496 13.9674 80.9461 13.9531H82.3426V12.7178C82.3426 12.0231 82.1886 11.529 81.8807 11.2354C81.5727 10.9417 81.1036 10.7949 80.4734 10.7949C79.9005 10.7949 79.435 10.9668 79.077 11.3105C78.7189 11.6471 78.5398 12.0768 78.5398 12.5996H76.6385C76.6385 12.0052 76.8139 11.4395 77.1648 10.9023C77.5158 10.3581 77.9884 9.93197 78.5828 9.62402C79.1772 9.31608 79.8396 9.16211 80.5701 9.16211C81.7589 9.16211 82.6613 9.45931 83.2771 10.0537C83.9002 10.641 84.2189 11.5003 84.2332 12.6318V18.4971C84.2404 19.3923 84.3621 20.1693 84.5984 20.8281V21H82.6219ZM80.0867 19.4854C80.5522 19.4854 80.9962 19.3564 81.4187 19.0986C81.8413 18.8408 82.1492 18.5186 82.3426 18.1318V15.3604H81.2684C80.366 15.3747 79.6534 15.5788 79.1307 15.9727C78.6079 16.3594 78.3465 16.9036 78.3465 17.6055C78.3465 18.2643 78.479 18.7441 78.7439 19.0449C79.0089 19.3385 79.4565 19.4854 80.0867 19.4854ZM91.3445 21.2148C89.8979 21.2148 88.7879 20.7852 88.0145 19.9258C87.241 19.0592 86.8471 17.7917 86.8328 16.123V14.7158C86.8328 12.9827 87.2088 11.6257 87.9607 10.6445C88.7199 9.65625 89.7762 9.16211 91.1297 9.16211C92.4904 9.16211 93.5073 9.59538 94.1805 10.4619C94.8536 11.3285 95.1974 12.6784 95.2117 14.5117V15.7578H88.7234V16.0264C88.7234 17.2725 88.9562 18.1784 89.4217 18.7441C89.8943 19.3099 90.5711 19.5928 91.452 19.5928C92.0105 19.5928 92.5011 19.4889 92.9236 19.2812C93.3533 19.0664 93.7544 18.7298 94.1268 18.2715L95.115 19.4746C94.2915 20.6348 93.0346 21.2148 91.3445 21.2148ZM91.1297 10.7949C90.3419 10.7949 89.7583 11.0671 89.3787 11.6113C88.9992 12.1484 88.7843 12.9863 88.7342 14.125H93.3103V13.8672C93.2602 12.7643 93.0597 11.9766 92.7088 11.5039C92.365 11.0312 91.8387 10.7949 91.1297 10.7949ZM99.5516 21H97.6502V4.5H99.5516V21Z" fill="black"/>
<path d="M24.943 7.13272L1.64409 14.7833M1.58853 14.2426L25.8498 22.3233" stroke="black"/>
<path d="M109.241 7.68138L132.896 14.1449M132.925 13.6021L109.103 22.8983" stroke="black"/>
</svg>
